<svg xmlns="http://www.w3.org/2000/svg" width="24" height="24" viewBox="0 0 24 24">
    <g data-name="Group 343008">
        <path data-name="Rectangle 118111" style="fill:none" d="M0 0h24v24H0z"/>
        <g data-name="Group 166409">
            <path data-name="Path 159983" d="M59.6 62.163v-7.025a2.777 2.777 0 0 1 2.852-2.677h14.322a2.777 2.777 0 0 1 2.852 2.677v10.8l-5.545-5.205-3.687 3.467-6.505-6.107zm11.537-6.016a1.345 1.345 0 1 0 1.43 1.343 1.389 1.389 0 0 0-1.43-1.343z" transform="translate(-57.46 -48.661)" style="fill-rule:evenodd;fill:#edeff3"/>
            <path data-name="Path 159984" d="M264.053 140.5a1.343 1.343 0 1 1-1.134 1.326 1.343 1.343 0 0 1 1.134-1.326z" transform="translate(-250.345 -132.995)" style="fill:#ffb751;fill-rule:evenodd"/>
            <path data-name="Path 159986" d="m69.335 192.468-6.107-6.107-4.628 4.629v4.183a2.685 2.685 0 0 0 2.677 2.677h14.048A2.685 2.685 0 0 0 78 195.173v-.962l-5.2-5.205z" transform="translate(-55.836 -176.929)" style="fill:#ffa0a4;fill-rule:evenodd"/>
            <g data-name="Group 165864">
                <path data-name="Path 160023" d="M14.321 4.252a1.911 1.911 0 0 0-1.906 1.9v.106a1.911 1.911 0 0 0 1.9 1.8 1.905 1.905 0 1 0 0-3.81m0 3.139a1.238 1.238 0 0 1-1.23-1.128h-.006v-.103a1.237 1.237 0 0 1 1.241-1.233 1.234 1.234 0 1 1 0 2.468" transform="translate(-.734 2.635)" style="fill:#323c6b"/>
                <path data-name="Path 160024" d="M17.489 0H3.078A3.085 3.085 0 0 0 0 3.077v11.766a3.086 3.086 0 0 0 3.078 3.077h14.411a3.087 3.087 0 0 0 3.078-3.077V3.077A3.087 3.087 0 0 0 17.489 0m2.278 14.843a2.288 2.288 0 0 1-2.278 2.278H3.078A2.288 2.288 0 0 1 .8 14.843V11.19L5.391 6.6l7.981 7.981a.38.38 0 0 0 .282.117.39.39 0 0 0 .28-.116.4.4 0 0 0 0-.566l-1.873-1.874 2.9-2.9 4.806 4.806zm0-1.926-4.449-4.45-.074-.075a.4.4 0 0 0-.281-.117.394.394 0 0 0-.281.117L11.5 11.573 5.675 5.748a.411.411 0 0 0-.565 0L.8 10.06V3.076A2.288 2.288 0 0 1 3.078.8h14.411a2.288 2.288 0 0 1 2.277 2.277z" style="fill:#323c6b" transform="translate(2 3.001)"/>
            </g>
        </g>
    </g>
</svg>
