<svg xmlns="http://www.w3.org/2000/svg" width="24" height="24" viewBox="0 0 24 24">
    <g data-name="Group 343005">
        <path data-name="Rectangle 118110" style="fill:none" d="M0 0h24v24H0z"/>
        <g data-name="Group 166423">
            <g data-name="Group 173919">
                <path data-name="Path 161542" d="M25.276 118.716v3.656a1.084 1.084 0 0 1-.4.841c-.863.7-3.241 2.141-8.238 2.141s-7.375-1.439-8.238-2.141a1.084 1.084 0 0 1-.4-.841v-3.656a1.084 1.084 0 0 1 1.084-1.084h15.107a1.084 1.084 0 0 1 1.085 1.084z" transform="translate(-7.018 -108.883)" style="fill:#9c8f9a"/>
                <path data-name="Path 161543" d="M25.276 118.716v3.656a1.084 1.084 0 0 1-.4.841c-.863.7-3.241 2.141-8.238 2.141s-7.375-1.439-8.238-2.141a1.084 1.084 0 0 1-.4-.841v-3.656a1.084 1.084 0 0 1 1.084-1.084h15.107a1.084 1.084 0 0 1 1.085 1.084z" transform="translate(-7.018 -108.883)" style="fill:#9c8f9a"/>
                <path data-name="Path 161544" d="M25.276 118.716v3.656a1.084 1.084 0 0 1-.4.841c-.863.7-3.241 2.141-8.238 2.141s-7.375-1.439-8.238-2.141a1.084 1.084 0 0 1-.4-.841v-3.656a1.084 1.084 0 0 1 1.084-1.084h15.107a1.084 1.084 0 0 1 1.085 1.084z" transform="translate(-7.018 -108.883)" style="fill:#407093"/>
                <path data-name="Path 161545" d="M24.876 236.572c-.863.7-3.241 2.141-8.238 2.141s-7.375-1.439-8.238-2.141a1.084 1.084 0 0 1-.4-.841v.627a1.084 1.084 0 0 0 .4.841c.863.7 3.241 2.141 8.238 2.141s7.375-1.439 8.238-2.141a1.084 1.084 0 0 0 .4-.841v-.627a1.084 1.084 0 0 1-.4.841z" transform="translate(-7.018 -222.869)" style="fill:#365e7d"/>
                <path data-name="Path 161546" d="M29.024 281.068c-4.909 0-7.29-1.388-8.191-2.1v5.671a1.084 1.084 0 0 0 1.084 1.084H36.13a1.084 1.084 0 0 0 1.084-1.084v-5.671c-.9.711-3.281 2.1-8.19 2.1z" transform="translate(-19.404 -264.596)" style="fill:#365e7d"/>
                <path data-name="Path 161547" d="M20.833 278.964v.627c.9.715 3.281 2.1 8.191 2.1s7.29-1.388 8.191-2.1v-.627c-.9.715-3.281 2.1-8.191 2.1s-7.29-1.385-8.191-2.1z" transform="translate(-19.404 -264.596)" style="fill:#2b4d66"/>
                <path data-name="Path 161548" d="M227.853 306a1.016 1.016 0 0 1-1.016-1.016v-1.243a.361.361 0 0 1 .361-.361h1.308a.361.361 0 0 1 .361.361v1.243a1.016 1.016 0 0 1-1.014 1.016z" transform="translate(-218.233 -288.164)" style="fill:#ffe27a"/>
                <path data-name="Path 161549" d="M227.853 332.456a1.016 1.016 0 0 1-1.016-1.016v.627a1.016 1.016 0 1 0 2.031 0v-.627a1.016 1.016 0 0 1-1.015 1.016z" transform="translate(-218.233 -315.244)" style="fill:#f9cf58"/>
                <path data-name="Path 161550" d="M172.4 41.821v-1.2a4.281 4.281 0 0 1 3.631 0v1.2h1.136V40.3a.568.568 0 0 0-.224-.452 3.4 3.4 0 0 0-.75-.4 5.523 5.523 0 0 0-3.955 0 3.4 3.4 0 0 0-.75.4.568.568 0 0 0-.224.452v1.518h1.136z" transform="translate(-164.598 -33.072)" style="fill:#e8834d"/>
                <g data-name="Group 173918">
                    <path data-name="Path 161551" d="M171.267 99.633h1.133v.627h-1.136z" transform="translate(-164.598 -91.511)" style="fill:#d66e41"/>
                    <path data-name="Path 161552" d="M308.124 99.633h1.136v.627h-1.136z" transform="translate(-296.688 -91.511)" style="fill:#d66e41"/>
                </g>
            </g>
            <path data-name="Path 161553" d="M16.485 33.887h-4.35v-1.259a.835.835 0 0 0-.327-.661 3.634 3.634 0 0 0-.808-.435 5.114 5.114 0 0 0-.646-.21.262.262 0 1 0-.129.507 4.6 4.6 0 0 1 .58.188 3.178 3.178 0 0 1 .691.367.309.309 0 0 1 .121.244v1.259H11v-.937a.262.262 0 0 0-.143-.233 4.3 4.3 0 0 0-1.938-.433 4.3 4.3 0 0 0-1.938.433.262.262 0 0 0-.143.233v.937h-.617v-1.259a.309.309 0 0 1 .121-.244 3.175 3.175 0 0 1 .691-.367 5.1 5.1 0 0 1 1.884-.348c.111 0 .224 0 .335.01a.262.262 0 1 0 .032-.523 6.424 6.424 0 0 0-.367-.011 5.627 5.627 0 0 0-2.079.386 3.633 3.633 0 0 0-.813.436.835.835 0 0 0-.327.66v1.259h-4.35A1.35 1.35 0 0 0 0 35.235V38.9a1.342 1.342 0 0 0 .448 1v5.559a1.35 1.35 0 0 0 1.352 1.35h10.337a.262.262 0 1 0 0-.523H1.8a.826.826 0 0 1-.825-.825v-5.17a8.757 8.757 0 0 0 1.572.811.262.262 0 1 0 .2-.486 7.368 7.368 0 0 1-1.919-1.078.822.822 0 0 1-.3-.64v-3.663a.826.826 0 0 1 .825-.825h15.132a.826.826 0 0 1 .825.825V38.9a.822.822 0 0 1-.3.64 7.684 7.684 0 0 1-2.226 1.2 15.91 15.91 0 0 1-4.584.855v-.6a.625.625 0 0 0-.624-.624H8.261a.625.625 0 0 0-.624.624v.6a17.055 17.055 0 0 1-3.82-.606.262.262 0 1 0-.146.5 17.608 17.608 0 0 0 3.966.627v.123a1.279 1.279 0 0 0 2.559 0v-.123a13.128 13.128 0 0 0 6.666-1.824v5.169a.826.826 0 0 1-.825.825h-2.853a.262.262 0 0 0 0 .524h2.853a1.35 1.35 0 0 0 1.348-1.348V39.9a1.342 1.342 0 0 0 .448-1v-3.665a1.35 1.35 0 0 0-1.348-1.348zm-9.126-.771a4.085 4.085 0 0 1 3.115 0v.771H7.359v-.771zm2.313 9.123a.756.756 0 0 1-1.512 0v-1.246a.1.1 0 0 1 .1-.1h1.312a.1.1 0 0 1 .1.1z" transform="translate(.703 -25.41)" style="fill:#323c6b"/>
            <g data-name="Group 173920">
                <path data-name="Path 159944" d="M42.321 2a4.319 4.319 0 0 0-3.036 7.388l-.2 1.249 1.552-.342A4.319 4.319 0 1 0 42.321 2z" transform="translate(-22.998 .377)" style="fill:#c7e2fb"/>
                <path data-name="Path 159945" d="M44.239 2a4.305 4.305 0 0 0-3.059 1.271A4.576 4.576 0 0 0 41 4.519a5.329 5.329 0 0 0 5.578 5.038c.18 0 .36-.009.538-.024A4.314 4.314 0 0 0 44.239 2z" transform="translate(-24.916 .377)" style="fill:#c7e2fb"/>
                <path data-name="Path 159956" d="M41.684 1a4.678 4.678 0 0 0-3.419 7.869l-.174 1.071a.36.36 0 0 0 .354.417.383.383 0 0 0 .078-.008l1.442-.318A4.679 4.679 0 1 0 41.684 1zm0 8.637a3.926 3.926 0 0 1-1.548-.314.367.367 0 0 0-.136-.028.374.374 0 0 0-.077.008l-1.034.228.111-.725a.36.36 0 0 0-.1-.313 3.959 3.959 0 1 1 2.784 1.145z" transform="translate(-22.36 1.017)" style="fill:#323c6b"/>
                <g data-name="Layer 2">
                    <path data-name="Path 161554" d="m5.782 2.04-.272.27-.162.164L3.18 4.642a.349.349 0 0 1-.16.091l-.913.237a.321.321 0 0 1-.061 0 .244.244 0 0 1-.238-.305l.229-.9a.331.331 0 0 1 .091-.165l2.178-2.163.16-.162.27-.27a.556.556 0 0 1 .767 0l.28.27a.542.542 0 0 1 0 .765z" transform="translate(15.383 3.654)" style="fill:#ffb751"/>
                    <path data-name="Path 161555" d="m15.978 2.04-.272.27-.162.164L14.5 1.429l.162-.154.27-.27a.556.556 0 0 1 .767 0l.28.27a.542.542 0 0 1-.001.765z" transform="translate(5.187 3.654)" style="fill:#d94c40"/>
                    <path data-name="Path 161556" d="M3.18 15.865a.349.349 0 0 1-.16.091l-.556.14-.347.087a.321.321 0 0 1-.061 0 .244.244 0 0 1-.238-.305l.089-.349.138-.546a.331.331 0 0 1 .091-.162 1.2 1.2 0 0 1 .173.144l.721.727a1.194 1.194 0 0 1 .15.173z" transform="translate(15.375 -7.561)" style="fill:#fff"/>
                    <g data-name="Group 173921">
                        <path data-name="Path 161557" d="m2.455 18.988-.347.087a.322.322 0 0 1-.061 0 .244.244 0 0 1-.238-.305l.091-.35z" transform="translate(15.383 -10.452)" style="fill:#323c6b"/>
                        <path data-name="Path 161558" d="M15.279 4a.146.146 0 0 1-.1-.043l-.516-.516a.148.148 0 1 1 .209-.209l.516.508a.148.148 0 0 1 0 .209.146.146 0 0 1-.109.051z" transform="translate(5.098 1.784)" style="fill:#323c6b"/>
                        <path data-name="Path 161559" d="M2.051 4.935a.24.24 0 0 1-.173-.071.252.252 0 0 1-.065-.235l.229-.9a.317.317 0 0 1 .091-.16L4.739.955a.556.556 0 0 1 .767 0l.28.28a.542.542 0 0 1 0 .765L3.174 4.611a.349.349 0 0 1-.16.091l-.9.225a.217.217 0 0 1-.061.008zm3.07-3.844a.24.24 0 0 0-.173.073l-2.61 2.61a.073.073 0 0 0-.014.024l-.2.824.824-.207a.047.047 0 0 0 .025-.015l2.6-2.611a.244.244 0 0 0 0-.347L5.3 1.164a.248.248 0 0 0-.175-.073z" transform="translate(15.38 3.694)" style="fill:#323c6b"/>
                    </g>
                </g>
            </g>
        </g>
    </g>
</svg>
