<svg xmlns="http://www.w3.org/2000/svg" width="24" height="24" viewBox="0 0 24 24">
    <path data-name="Rectangle 97254" style="fill:none" d="M0 0h24v24H0z"/>
    <path d="M28.217 50h-16.6A1.612 1.612 0 0 0 10 51.612v13.381a1.612 1.612 0 0 0 1.612 1.607h16.6a1.612 1.612 0 0 0 1.612-1.612V51.612A1.612 1.612 0 0 0 28.217 50z" transform="translate(-8.08 -46.377)" style="fill:#e2e7ef"/>
    <path d="M28.217 50h-16.6A1.612 1.612 0 0 0 10 51.612v10.157h19.829V51.612A1.612 1.612 0 0 0 28.217 50z" transform="translate(-8.08 -46.377)" style="fill:#ff7d95"/>
    <path d="m216 147.231 2.117 1.222a.746.746 0 0 1 0 1.293L216 150.968a.746.746 0 0 1-1.12-.646v-2.444a.746.746 0 0 1 1.12-.647z" transform="translate(-204.707 -139.592)" style="fill:#fff"/>
    <path d="M18.62 40H8.026a.4.4 0 0 0 0 .806H18.62a1.21 1.21 0 0 1 1.209 1.209v9.753H.806v-9.753a1.21 1.21 0 0 1 1.209-1.209h6.494a.4.4 0 0 0 0-.806H2.015A2.017 2.017 0 0 0 0 42.015V55.4a2.017 2.017 0 0 0 2.015 2.015h16.6a2.017 2.017 0 0 0 2.02-2.015V42.015A2.017 2.017 0 0 0 18.62 40zm0 16.6H2.015a1.21 1.21 0 0 1-1.209-1.2v-2.825h19.023V55.4a1.21 1.21 0 0 1-1.209 1.2z" transform="translate(1.517 -36.78)" style="fill:#323c6b"/>
    <path d="M71.134 372a1.209 1.209 0 1 0 1.209 1.209A1.21 1.21 0 0 0 71.134 372zm0 1.612a.4.4 0 1 1 .4-.4.4.4 0 0 1-.4.4z" transform="translate(-65.59 -355.399)" style="fill:#323c6b"/>
    <path d="M183.431 392h-10.039a.4.4 0 1 0 0 .806h10.039a.4.4 0 1 0 0-.806z" transform="translate(-164.5 -374.593)" style="stroke:#323c6b;stroke-width:.25px;fill:#323c6b"/>
    <path d="M204.885 138.263v2.444a1.147 1.147 0 0 0 1.724 1l2.117-1.222a1.149 1.149 0 0 0 0-1.991l-2.117-1.222a1.149 1.149 0 0 0-1.724 1zm.806 0a.337.337 0 0 1 .172-.3.354.354 0 0 1 .173-.047.336.336 0 0 1 .17.047l2.117 1.222a.343.343 0 0 1 0 .595l-2.117 1.22a.343.343 0 0 1-.515-.3v-2.444z" transform="translate(-195.11 -129.978)" style="stroke:#323c6b;stroke-width:.25px;fill:#323c6b"/>
    <path d="M.5 0a.5.5 0 1 1-.5.5.5.5 0 0 1 .5-.5z" transform="translate(5 17.3)" style="fill:#d0ace4"/>
</svg>
