<svg xmlns="http://www.w3.org/2000/svg" width="24" height="24" viewBox="0 0 24 24">
    <g data-name="Group 343012">
        <path data-name="Rectangle 118111" style="fill:none" d="M0 0h24v24H0z"/>
        <g data-name="Group 343543">
            <path data-name="Path 434272" d="M21.6 17.129a1.417 1.417 0 0 0 1.417-1.417V3.857l-.227-.41H.523L.3 2.31v11.856c0 2.329.635 2.963 1.417 2.963" transform="translate(.631 2.873)" style="fill:#fffdf1"/>
            <path data-name="Path 434273" d="M21.6.293H1.713A1.417 1.417 0 0 0 .3 1.71V4.2h22.73V1.71A1.417 1.417 0 0 0 21.61.293" transform="translate(.631 2.528)" style="fill:#5c9cee"/>
            <path data-name="Path 434274" d="M1.946 2.055a.636.636 0 1 0 .636-.636.636.636 0 0 0-.636.636" transform="translate(.912 2.72)" style="fill:#040504"/>
            <path data-name="Path 434275" d="M3.614 2.055a.636.636 0 1 0 .636-.636.636.636 0 0 0-.636.636" transform="translate(1.197 2.72)" style="fill:#040504"/>
            <path data-name="Path 434276" d="M5.283 2.055a.636.636 0 1 0 .636-.636.636.636 0 0 0-.636.636" transform="translate(1.482 2.72)" style="fill:#040504"/>
            <path data-name="Path 434277" d="M3.8 10.955a.342.342 0 0 0 .323-.228l.85-2.384.811 2.38a.34.34 0 0 0 .646 0l1.157-3.285a.343.343 0 1 0-.647-.227L6.12 9.56l-.809-2.372a.351.351 0 0 0-.647 0l-.852 2.388L3 7.22a.343.343 0 0 0-.656.2l.007.021 1.127 3.278a.342.342 0 0 0 .322.236z" transform="translate(.978 3.669)" style="fill:#333a60"/>
            <path data-name="Path 434278" d="M9.223 10.955a.342.342 0 0 0 .323-.228l.85-2.384.811 2.38a.34.34 0 0 0 .646 0l1.152-3.285a.343.343 0 1 0-.647-.227l-.82 2.35-.806-2.37a.351.351 0 0 0-.647 0l-.85 2.387-.809-2.356a.343.343 0 0 0-.649.222L8.9 10.723a.343.343 0 0 0 .318.232" transform="translate(1.906 3.67)" style="fill:#333a60"/>
            <path data-name="Path 434279" d="M14.557 10.955a.342.342 0 0 0 .323-.228l.85-2.384.811 2.38a.34.34 0 0 0 .646 0l1.153-3.285a.343.343 0 1 0-.647-.227l-.82 2.35-.809-2.372a.351.351 0 0 0-.647 0l-.851 2.387-.81-2.356a.343.343 0 1 0-.656.2.124.124 0 0 0 .007.022l1.128 3.278a.344.344 0 0 0 .322.234" transform="translate(2.815 3.669)" style="fill:#333a60"/>
            <path data-name="Path 434280" d="M21.667 0H1.76A1.757 1.757 0 0 0 0 1.756V16.1a1.757 1.757 0 0 0 1.756 1.756H21.663a1.757 1.757 0 0 0 1.756-1.756V1.76A1.757 1.757 0 0 0 21.667 0m1.067 16.1a1.076 1.076 0 0 1-1.074 1.074H1.76A1.076 1.076 0 0 1 .686 16.1V4.594h22.048zm0-12.2H.69V1.76A1.075 1.075 0 0 1 1.763.686h19.9a1.076 1.076 0 0 1 1.074 1.074z" style="fill:#333a60" transform="translate(.58 2.478)"/>
        </g>
    </g>
</svg>
