<svg width="22" height="22" viewBox="0 0 22 22" fill="none" xmlns="http://www.w3.org/2000/svg">
<rect width="22" height="22" rx="3" fill="#2AA81A"/>
<path fill-rule="evenodd" clip-rule="evenodd" d="M16.1976 5.79534C14.8191 4.42165 12.9856 3.66476 11.0321 3.66406C7.00671 3.66406 3.73065 6.92406 3.72925 10.9312C3.72855 12.2122 4.06505 13.4625 4.70408 14.5644L3.66797 18.3307L7.5393 17.3201C8.60587 17.8993 9.80691 18.2042 11.029 18.2046H11.0321C15.0568 18.2046 18.3332 14.9442 18.3346 10.9371C18.3353 8.99507 17.5765 7.16939 16.1976 5.79569V5.79534ZM11.0321 16.9772H11.0297C9.94066 16.9769 8.87235 16.6856 7.94025 16.1353L7.71858 16.0043L5.42121 16.604L6.03433 14.3748L5.89006 14.1462C5.28254 13.1844 4.96145 12.0728 4.96215 10.9316C4.96355 7.60115 7.68637 4.89139 11.0346 4.89139C12.6558 4.89209 14.1797 5.52109 15.3257 6.66305C16.4718 7.80466 17.1024 9.32263 17.1017 10.9364C17.1003 14.2672 14.3775 16.9769 11.0321 16.9769V16.9772ZM14.3614 12.4533C14.179 12.3624 13.2819 11.9233 13.1145 11.8627C12.9471 11.802 12.8256 11.7717 12.7041 11.9536C12.5826 12.1355 12.2328 12.5446 12.1264 12.6655C12.0199 12.7868 11.9134 12.8018 11.731 12.7108C11.5486 12.6199 10.9607 12.4282 10.2635 11.8097C9.72115 11.3281 9.35485 10.7336 9.24843 10.5517C9.14198 10.3698 9.23723 10.2715 9.32824 10.1813C9.41017 10.0997 9.51068 9.96905 9.60206 9.8631C9.69348 9.75716 9.72359 9.68122 9.7845 9.56027C9.84545 9.439 9.81497 9.3331 9.76947 9.24211C9.72392 9.15117 9.35908 8.25731 9.20675 7.89386C9.05862 7.53982 8.90808 7.58791 8.79637 7.58198C8.68992 7.57675 8.56843 7.57571 8.44657 7.57571C8.32472 7.57571 8.12721 7.62101 7.95984 7.80292C7.79248 7.9848 7.32115 8.42423 7.32115 9.31773C7.32115 10.2112 7.97492 11.0751 8.0663 11.1964C8.15768 11.3177 9.35309 13.1517 11.1834 13.9385C11.6186 14.1257 11.9586 14.2375 12.2237 14.3212C12.6607 14.4595 13.0585 14.44 13.3729 14.3933C13.7234 14.341 14.4525 13.9539 14.6044 13.5298C14.7564 13.1057 14.7564 12.7419 14.7109 12.6662C14.6654 12.5906 14.5435 12.545 14.3611 12.454L14.3614 12.4533Z" fill="white" stroke="white" stroke-width="0.2"/>
</svg>
